<svg width="24" xmlns="http://www.w3.org/2000/svg" height="24" id="screenshot-f0eae4f2-4b70-8084-8006-61946fbfe244" viewBox="0 0 24 24" xmlns:xlink="http://www.w3.org/1999/xlink" fill="none" version="1.1"><g id="shape-f0eae4f2-4b70-8084-8006-61946fbfe244"><defs><clipPath id="frame-clip-f0eae4f2-4b70-8084-8006-61946fbfe244-render-1" class="frame-clip frame-clip-def"><rect rx="0" ry="0" x="0" y="0" width="24" height="24" transform="matrix(1.000000, 0.000000, 0.000000, 1.000000, 0.000000, 0.000000)"/></clipPath></defs><g class="frame-container-wrapper" opacity="1"><g class="frame-container-blur"><g class="frame-container-shadows"><g clip-path="url(#frame-clip-f0eae4f2-4b70-8084-8006-61946fbfe244-render-1)" fill="none"><g class="fills" id="fills-f0eae4f2-4b70-8084-8006-61946fbfe244"><rect width="24" height="24" class="frame-background" x="0" transform="matrix(1.000000, 0.000000, 0.000000, 1.000000, 0.000000, 0.000000)" style="fill: rgb(255, 255, 255); fill-opacity: 0;" ry="0" rx="0" y="0"/></g><g class="frame-children"><g id="shape-f0eae4f2-4b70-8084-8006-61946fc02c98" style="opacity: 1;"><g class="fills" id="fills-f0eae4f2-4b70-8084-8006-61946fc02c98"><path d="M9.04638671875,5.865234375L9.04638671875,8.61328125L7.0322265625,8.61328125L7.0322265625,11.97265625L9.04638671875,11.97265625L9.04638671875,21.958984375L13.18017578125,21.958984375L13.18017578125,11.9736328125L15.955078125,11.9736328125C15.955078125,11.9736328125,16.21533203125,10.36328125,16.34130859375,8.6005859375L13.197265625,8.6005859375L13.197265625,6.302734375C13.197265625,5.9599609375,13.6474609375,5.498046875,14.09326171875,5.498046875L16.34716796875,5.498046875L16.34716796875,2L13.283203125,2C8.943359375,2,9.04638671875,5.36328125,9.04638671875,5.865234375L9.04638671875,5.865234375Z" fill-rule="nonzero" style="fill: rgb(15, 23, 42); fill-opacity: 1;"/></g></g></g></g></g></g></g></g></svg>