<svg width="24" xmlns="http://www.w3.org/2000/svg" height="24" id="screenshot-f0eae4f2-4b70-8084-8006-61946eaa2b62" viewBox="0 0 24 24" xmlns:xlink="http://www.w3.org/1999/xlink" fill="none" version="1.1"><g id="shape-f0eae4f2-4b70-8084-8006-61946eaa2b62"><defs><clipPath id="frame-clip-f0eae4f2-4b70-8084-8006-61946eaa2b62-render-1" class="frame-clip frame-clip-def"><rect rx="0" ry="0" x="0" y="0" width="24" height="24" transform="matrix(1.000000, 0.000000, 0.000000, 1.000000, 0.000000, 0.000000)"/></clipPath></defs><g class="frame-container-wrapper" opacity="1"><g class="frame-container-blur"><g class="frame-container-shadows"><g clip-path="url(#frame-clip-f0eae4f2-4b70-8084-8006-61946eaa2b62-render-1)" fill="none"><g class="fills" id="fills-f0eae4f2-4b70-8084-8006-61946eaa2b62"><rect width="24" height="24" class="frame-background" x="0" transform="matrix(1.000000, 0.000000, 0.000000, 1.000000, 0.000000, 0.000000)" style="fill: rgb(255, 255, 255); fill-opacity: 0;" ry="0" rx="0" y="0"/></g><g class="frame-children"><g id="shape-f0eae4f2-4b70-8084-8006-61946eaa2b65" style="opacity: 1;"><g class="fills" id="fills-f0eae4f2-4b70-8084-8006-61946eaa2b65"><path d="M15.5859375,10.65673828125L11.63623046875,6.70703125C11.45361328125,6.5185546875,11.35302734375,6.265625,11.35546875,6.00341796875C11.357421875,5.7412109375,11.462890625,5.49072265625,11.64794921875,5.30517578125C11.83349609375,5.11962890625,12.08447265625,5.0146484375,12.3466796875,5.01220703125C12.60888671875,5.009765625,12.861328125,5.11083984375,13.0498046875,5.29296875L18.70703125,10.94970703125C18.80029296875,11.04248046875,18.8740234375,11.15283203125,18.9248046875,11.27392578125C18.97509765625,11.3955078125,19.0009765625,11.525390625,19.0009765625,11.65673828125C19.0009765625,11.7880859375,18.97509765625,11.91845703125,18.9248046875,12.03955078125C18.8740234375,12.1611328125,18.80029296875,12.271484375,18.70703125,12.36376953125L13.0498046875,18.02099609375C12.95751953125,18.1162109375,12.84716796875,18.1923828125,12.7255859375,18.2451171875C12.603515625,18.29736328125,12.47216796875,18.3251953125,12.33935546875,18.326171875C12.20654296875,18.3271484375,12.07470703125,18.30224609375,11.9521484375,18.251953125C11.8291015625,18.20166015625,11.71728515625,18.12744140625,11.62353515625,18.033203125C11.52978515625,17.939453125,11.45556640625,17.82763671875,11.4052734375,17.705078125C11.35498046875,17.58203125,11.32958984375,17.4501953125,11.33056640625,17.3173828125C11.33203125,17.1845703125,11.359375,17.0537109375,11.412109375,16.931640625C11.46435546875,16.8095703125,11.54052734375,16.69921875,11.63623046875,16.60693359375L15.5859375,12.65673828125L6,12.65673828125C5.73486328125,12.65673828125,5.48046875,12.5517578125,5.29296875,12.3642578125C5.10546875,12.17626953125,5,11.92236328125,5,11.65673828125C5,11.3916015625,5.10546875,11.13720703125,5.29296875,10.94970703125C5.48046875,10.76220703125,5.73486328125,10.65673828125,6,10.65673828125L15.5859375,10.65673828125L15.5859375,10.65673828125Z" fill-rule="nonzero" style="fill: rgb(255, 255, 255); fill-opacity: 1;"/></g></g></g></g></g></g></g></g></svg>