<svg width="24" xmlns="http://www.w3.org/2000/svg" height="24" id="screenshot-f0eae4f2-4b70-8084-8006-61946eef02ca" viewBox="0 0 24 24" xmlns:xlink="http://www.w3.org/1999/xlink" fill="none" version="1.1"><g id="shape-f0eae4f2-4b70-8084-8006-61946eef02ca"><defs><clipPath id="frame-clip-f0eae4f2-4b70-8084-8006-61946eef02ca-render-1" class="frame-clip frame-clip-def"><rect rx="0" ry="0" x="0" y="0" width="24" height="24" transform="matrix(1.000000, 0.000000, 0.000000, 1.000000, 0.000000, 0.000000)"/></clipPath></defs><g class="frame-container-wrapper" opacity="1"><g class="frame-container-blur"><g class="frame-container-shadows"><g clip-path="url(#frame-clip-f0eae4f2-4b70-8084-8006-61946eef02ca-render-1)" fill="none"><g class="fills" id="fills-f0eae4f2-4b70-8084-8006-61946eef02ca"><rect width="24" height="24" class="frame-background" x="0" transform="matrix(1.000000, 0.000000, 0.000000, 1.000000, 0.000000, 0.000000)" style="fill: rgb(255, 255, 255); fill-opacity: 0;" ry="0" rx="0" y="0"/></g><g class="frame-children"><g id="shape-f0eae4f2-4b70-8084-8006-61946eef41a3" style="opacity: 1;"><g class="fills" id="fills-f0eae4f2-4b70-8084-8006-61946eef41a3"><path d="M15.585784912109375,10.6572265625L11.636077880859375,6.70703125C11.453460693359375,6.5185546875,11.352874755859375,6.2666015625,11.355316162109375,6.00390625C11.357269287109375,5.7421875,11.462738037109375,5.4912109375,11.647796630859375,5.3056640625C11.833343505859375,5.1201171875,12.084320068359375,5.0146484375,12.346527099609375,5.0126953125C12.608734130859375,5.0107421875,12.861175537109375,5.111328125,13.049652099609375,5.29296875L18.706878662109375,10.9501953125C18.800140380859375,11.04296875,18.873870849609375,11.1533203125,18.924652099609375,11.2744140625C18.974945068359375,11.3955078125,19.000823974609375,11.5263671875,19.000823974609375,11.6572265625C19.000823974609375,11.7890625,18.974945068359375,11.9189453125,18.924652099609375,12.0400390625C18.873870849609375,12.1611328125,18.800140380859375,12.271484375,18.706878662109375,12.3642578125L13.049652099609375,18.021484375C12.957366943359375,18.1171875,12.847015380859375,18.193359375,12.725433349609375,18.2451171875C12.603363037109375,18.2978515625,12.472015380859375,18.3251953125,12.339202880859375,18.326171875C12.206390380859375,18.328125,12.074554443359375,18.302734375,11.951995849609375,18.251953125C11.828948974609375,18.2021484375,11.717132568359375,18.1279296875,11.623382568359375,18.0341796875C11.529632568359375,17.939453125,11.455413818359375,17.828125,11.405120849609375,17.705078125C11.354827880859375,17.58203125,11.329437255859375,17.451171875,11.330413818359375,17.318359375C11.331878662109375,17.185546875,11.359222412109375,17.0537109375,11.411956787109375,16.931640625C11.464202880859375,16.8095703125,11.540374755859375,16.69921875,11.636077880859375,16.607421875L15.585784912109375,12.6572265625L5.999847412109375,12.6572265625C5.734710693359375,12.6572265625,5.480316162109375,12.5517578125,5.292816162109375,12.3642578125C5.105316162109375,12.1767578125,4.999847412109375,11.9228515625,4.999847412109375,11.6572265625C4.999847412109375,11.392578125,5.105316162109375,11.1376953125,5.292816162109375,10.9501953125C5.480316162109375,10.7626953125,5.734710693359375,10.6572265625,5.999847412109375,10.6572265625L15.585784912109375,10.6572265625L15.585784912109375,10.6572265625Z" fill-rule="nonzero" style="fill: rgb(147, 51, 234); fill-opacity: 1;"/></g></g></g></g></g></g></g></g></svg>