<svg width="24" xmlns="http://www.w3.org/2000/svg" height="24" id="screenshot-f0eae4f2-4b70-8084-8006-61946fc09613" viewBox="0 0 24 24" xmlns:xlink="http://www.w3.org/1999/xlink" fill="none" version="1.1"><g id="shape-f0eae4f2-4b70-8084-8006-61946fc09613"><defs><clipPath id="frame-clip-f0eae4f2-4b70-8084-8006-61946fc09613-render-1" class="frame-clip frame-clip-def"><rect rx="0" ry="0" x="0" y="0" width="24" height="24" transform="matrix(1.000000, 0.000000, 0.000000, 1.000000, 0.000000, 0.000000)"/></clipPath></defs><g class="frame-container-wrapper" opacity="1"><g class="frame-container-blur"><g class="frame-container-shadows"><g clip-path="url(#frame-clip-f0eae4f2-4b70-8084-8006-61946fc09613-render-1)" fill="none"><g class="fills" id="fills-f0eae4f2-4b70-8084-8006-61946fc09613"><rect width="24" height="24" class="frame-background" x="0" transform="matrix(1.000000, 0.000000, 0.000000, 1.000000, 0.000000, 0.000000)" style="fill: rgb(255, 255, 255); fill-opacity: 0;" ry="0" rx="0" y="0"/></g><g class="frame-children"><g id="shape-f0eae4f2-4b70-8084-8006-61946fc0eb78" style="opacity: 1;"><g class="fills" id="fills-f0eae4f2-4b70-8084-8006-61946fc0eb78"><path d="M16.01708984375,2L7.94677734375,2C6.3701171875,2.001953125,4.8583984375,2.62890625,3.74365234375,3.744140625C2.62841796875,4.859375,2.00146484375,6.37109375,2,7.9482421875L2,16.017578125C2.001953125,17.5947265625,2.62890625,19.1064453125,3.744140625,20.2216796875C4.859375,21.3359375,6.37109375,21.9638671875,7.9482421875,21.96484375L16.01806640625,21.96484375C17.5947265625,21.962890625,19.1064453125,21.3359375,20.2216796875,20.220703125C21.33642578125,19.10546875,21.96337890625,17.59375,21.96484375,16.0166015625L21.96484375,7.947265625C21.96337890625,6.3701171875,21.3359375,4.8583984375,20.220703125,3.7431640625C19.10546875,2.62890625,17.59375,2.001953125,16.01708984375,2L16.01708984375,2ZM19.95703125,16.0166015625C19.95703125,16.5341796875,19.85498046875,17.046875,19.6572265625,17.5244140625C19.458984375,18.0029296875,19.1689453125,18.4375,18.80322265625,18.802734375C18.43701171875,19.1689453125,18.0029296875,19.458984375,17.52490234375,19.6572265625C17.046875,19.85546875,16.5341796875,19.95703125,16.01708984375,19.95703125L7.94677734375,19.95703125C6.90234375,19.95703125,5.900390625,19.5419921875,5.16162109375,18.802734375C4.4228515625,18.0634765625,4.0078125,17.0615234375,4.0078125,16.0166015625L4.0078125,7.947265625C4.00830078125,6.90234375,4.42333984375,5.900390625,5.162109375,5.162109375C5.9013671875,4.4228515625,6.9033203125,4.0078125,7.9482421875,4.0078125L16.01806640625,4.0078125C17.06298828125,4.0078125,18.064453125,4.423828125,18.80322265625,5.162109375C19.5419921875,5.9013671875,19.95703125,6.9033203125,19.95703125,7.9482421875L19.95703125,16.017578125L19.95703125,16.0166015625Z" fill-rule="nonzero" style="fill: rgb(15, 23, 42); fill-opacity: 1;"/></g></g><g id="shape-f0eae4f2-4b70-8084-8006-61946fc0eb7b" style="opacity: 1;"><g class="fills" id="fills-f0eae4f2-4b70-8084-8006-61946fc0eb7b"><path d="M11.98193359375,6.8193359375C10.61328125,6.8212890625,9.30126953125,7.3662109375,8.33349609375,8.333984375C7.3662109375,9.3017578125,6.82177734375,10.61328125,6.81982421875,11.982421875C6.8212890625,13.3515625,7.36572265625,14.6640625,8.33349609375,15.6318359375C9.3017578125,16.599609375,10.61376953125,17.14453125,11.98291015625,17.146484375C13.35205078125,17.14453125,14.66455078125,16.6005859375,15.6328125,15.6318359375C16.6005859375,14.6640625,17.14501953125,13.3515625,17.14697265625,11.982421875C17.14453125,10.61328125,16.599609375,9.30078125,15.63134765625,8.333984375C14.6630859375,7.3662109375,13.3505859375,6.8212890625,11.98193359375,6.8203125L11.98193359375,6.8193359375ZM11.98193359375,15.138671875C11.14501953125,15.138671875,10.3427734375,14.8056640625,9.7509765625,14.2138671875C9.1591796875,13.623046875,8.82666015625,12.8203125,8.82666015625,11.9833984375C8.82666015625,11.146484375,9.1591796875,10.34375,9.7509765625,9.751953125C10.3427734375,9.1611328125,11.14501953125,8.828125,11.98193359375,8.828125C12.818359375,8.828125,13.62109375,9.1611328125,14.212890625,9.751953125C14.80419921875,10.34375,15.13671875,11.146484375,15.13671875,11.9833984375C15.13671875,12.8203125,14.80419921875,13.623046875,14.212890625,14.2138671875C13.62109375,14.8056640625,12.818359375,15.138671875,11.98193359375,15.138671875L11.98193359375,15.138671875Z" fill-rule="nonzero" style="fill: rgb(15, 23, 42); fill-opacity: 1;"/></g></g><g id="shape-f0eae4f2-4b70-8084-8006-61946fc13917" style="opacity: 1;"><g class="fills" id="fills-f0eae4f2-4b70-8084-8006-61946fc13917"><path d="M17.15576171875,8.0947265625C17.83935546875,8.0947265625,18.39306640625,7.541015625,18.39306640625,6.8583984375C18.39306640625,6.1748046875,17.83935546875,5.62109375,17.15576171875,5.62109375C16.47265625,5.62109375,15.9189453125,6.1748046875,15.9189453125,6.8583984375C15.9189453125,7.541015625,16.47265625,8.0947265625,17.15576171875,8.0947265625Z" fill-rule="nonzero" style="fill: rgb(15, 23, 42); fill-opacity: 1;"/></g></g></g></g></g></g></g></g></svg>