<svg width="19.959" xmlns="http://www.w3.org/2000/svg" height="19.072" id="screenshot-f0eae4f2-4b70-8084-8006-61946fc17ac1" viewBox="5881 11458.026 19.959 19.072" xmlns:xlink="http://www.w3.org/1999/xlink" fill="none" version="1.1"><g id="shape-f0eae4f2-4b70-8084-8006-61946fc17ac1" style="opacity: 1;"><g class="fills" id="fills-f0eae4f2-4b70-8084-8006-61946fc17ac1"><path d="M5900.958984375,11469.7197265625L5900.958984375,11477.0986328125L5896.68115234375,11477.0986328125L5896.68115234375,11470.212890625C5896.68115234375,11468.4833984375,5896.06201171875,11467.3037109375,5894.51416015625,11467.3037109375C5893.33203125,11467.3037109375,5892.6279296875,11468.099609375,5892.31884765625,11468.8681640625C5892.2060546875,11469.1435546875,5892.1767578125,11469.5263671875,5892.1767578125,11469.9111328125L5892.1767578125,11477.0986328125L5887.89697265625,11477.0986328125C5887.89697265625,11477.0986328125,5887.955078125,11465.4384765625,5887.89697265625,11464.2294921875L5892.1767578125,11464.2294921875L5892.1767578125,11466.0537109375L5892.14892578125,11466.095703125L5892.1767578125,11466.095703125L5892.1767578125,11466.0537109375C5892.7451171875,11465.1787109375,5893.759765625,11463.927734375,5896.033203125,11463.927734375C5898.84814453125,11463.927734375,5900.958984375,11465.767578125,5900.958984375,11469.7197265625L5900.958984375,11469.7197265625ZM5883.4208984375,11458.0263671875C5881.9580078125,11458.0263671875,5881,11458.986328125,5881,11460.2490234375C5881,11461.484375,5881.93017578125,11462.4736328125,5883.365234375,11462.4736328125L5883.39306640625,11462.4736328125C5884.88623046875,11462.4736328125,5885.81298828125,11461.484375,5885.81298828125,11460.2490234375C5885.787109375,11458.986328125,5884.88720703125,11458.0263671875,5883.421875,11458.0263671875L5883.4208984375,11458.0263671875ZM5881.25390625,11477.0986328125L5885.5322265625,11477.0986328125L5885.5322265625,11464.2294921875L5881.25390625,11464.2294921875L5881.25390625,11477.0986328125Z" fill-rule="nonzero" style="fill: rgb(15, 23, 42); fill-opacity: 1;"/></g></g></svg>