<svg width="24" xmlns="http://www.w3.org/2000/svg" height="24" id="screenshot-f0eae4f2-4b70-8084-8006-61946fc05935" viewBox="0 0 24 24" xmlns:xlink="http://www.w3.org/1999/xlink" fill="none" version="1.1"><g id="shape-f0eae4f2-4b70-8084-8006-61946fc05935"><defs><clipPath id="frame-clip-f0eae4f2-4b70-8084-8006-61946fc05935-render-1" class="frame-clip frame-clip-def"><rect rx="0" ry="0" x="0" y="0" width="24" height="24" transform="matrix(1.000000, 0.000000, 0.000000, 1.000000, 0.000000, 0.000000)"/></clipPath></defs><g class="frame-container-wrapper" opacity="1"><g class="frame-container-blur"><g class="frame-container-shadows"><g clip-path="url(#frame-clip-f0eae4f2-4b70-8084-8006-61946fc05935-render-1)" fill="none"><g class="fills" id="fills-f0eae4f2-4b70-8084-8006-61946fc05935"><rect width="24" height="24" class="frame-background" x="0" transform="matrix(1.000000, 0.000000, 0.000000, 1.000000, 0.000000, 0.000000)" style="fill: rgb(255, 255, 255); fill-opacity: 0;" ry="0" rx="0" y="0"/></g><g class="frame-children"><g id="shape-f0eae4f2-4b70-8084-8006-61946fc05938" style="opacity: 1;"><g class="fills" id="fills-f0eae4f2-4b70-8084-8006-61946fc05938"><path d="M22,5.90625C21.25048828125,6.234375,20.45654296875,6.4482421875,19.64404296875,6.5439453125C20.49658203125,6.04296875,21.13818359375,5.2490234375,21.4482421875,4.3095703125C20.64013671875,4.7802734375,19.7587890625,5.111328125,18.8408203125,5.2900390625C18.45458984375,4.884765625,17.98974609375,4.5634765625,17.474609375,4.34375C16.9599609375,4.125,16.40576171875,4.0126953125,15.84619140625,4.0146484375C13.580078125,4.0146484375,11.7431640625,5.82421875,11.7431640625,8.0546875C11.7431640625,8.37109375,11.77880859375,8.6796875,11.84912109375,8.974609375C10.2236328125,8.8974609375,8.63232421875,8.482421875,7.17626953125,7.7548828125C5.72021484375,7.0283203125,4.431640625,6.005859375,3.39306640625,4.75390625C3.02880859375,5.3681640625,2.83740234375,6.0693359375,2.8388671875,6.783203125C2.83984375,7.451171875,3.0068359375,8.109375,3.3251953125,8.6962890625C3.6435546875,9.283203125,4.103515625,9.7822265625,4.6630859375,10.146484375C4.0126953125,10.1259765625,3.3759765625,9.9521484375,2.80517578125,9.6396484375L2.80517578125,9.689453125C2.80517578125,11.6474609375,4.22021484375,13.2802734375,6.09521484375,13.65234375C5.74267578125,13.74609375,5.37939453125,13.7939453125,5.01513671875,13.7939453125C4.75,13.7939453125,4.4931640625,13.7685546875,4.2421875,13.71875C4.51025390625,14.5263671875,5.02294921875,15.2314453125,5.7099609375,15.734375C6.396484375,16.2373046875,7.22265625,16.513671875,8.07421875,16.525390625C6.6142578125,17.650390625,4.82177734375,18.2578125,2.97900390625,18.2529296875C2.64697265625,18.2529296875,2.32080078125,18.232421875,2,18.1962890625C3.88134765625,19.3876953125,6.0625,20.017578125,8.2890625,20.0146484375C15.8359375,20.0146484375,19.9619140625,13.857421875,19.9619140625,8.5185546875L19.9482421875,7.99609375C20.7529296875,7.4296875,21.4482421875,6.7216796875,22,5.90625L22,5.90625Z" fill-rule="nonzero" style="fill: rgb(15, 23, 42); fill-opacity: 1;"/></g></g></g></g></g></g></g></g></svg>