<svg width="24" xmlns="http://www.w3.org/2000/svg" height="24" id="screenshot-f0eae4f2-4b70-8084-8006-61946fbf7b30" viewBox="0 0 24 24" xmlns:xlink="http://www.w3.org/1999/xlink" fill="none" version="1.1"><g id="shape-f0eae4f2-4b70-8084-8006-61946fbf7b30"><defs><clipPath id="frame-clip-f0eae4f2-4b70-8084-8006-61946fbf7b30-render-1" class="frame-clip frame-clip-def"><rect rx="0" ry="0" x="0" y="0" width="24" height="24" transform="matrix(1.000000, 0.000000, 0.000000, 1.000000, 0.000000, 0.000000)"/></clipPath></defs><g class="frame-container-wrapper" opacity="1"><g class="frame-container-blur"><g class="frame-container-shadows"><g clip-path="url(#frame-clip-f0eae4f2-4b70-8084-8006-61946fbf7b30-render-1)" fill="none"><g class="fills" id="fills-f0eae4f2-4b70-8084-8006-61946fbf7b30"><rect width="24" height="24" class="frame-background" x="0" transform="matrix(1.000000, 0.000000, 0.000000, 1.000000, 0.000000, 0.000000)" style="fill: rgb(255, 255, 255); fill-opacity: 0;" ry="0" rx="0" y="0"/></g><g class="frame-children"><g id="shape-f0eae4f2-4b70-8084-8006-61946fbf9dde" style="opacity: 1;"><g class="fills" id="fills-f0eae4f2-4b70-8084-8006-61946fbf9dde"><path d="M17.81201171875,5.0166015625L6.14501953125,5.0166015625C3.85498046875,5.0166015625,2,6.8515625,2,9.115234375L2,14.8837890625C2,17.1474609375,3.85595703125,18.9833984375,6.14501953125,18.9833984375L17.81201171875,18.9833984375C20.10205078125,18.9833984375,21.95703125,17.1474609375,21.95703125,14.8837890625L21.95703125,9.115234375C21.95703125,6.8515625,20.10107421875,5.015625,17.81201171875,5.015625L17.81201171875,5.0166015625ZM15.0087890625,12.279296875L9.5517578125,14.8544921875C9.5185546875,14.87109375,9.48193359375,14.8779296875,9.44482421875,14.8759765625C9.408203125,14.8740234375,9.37255859375,14.8623046875,9.3408203125,14.8427734375C9.3095703125,14.8232421875,9.28369140625,14.7958984375,9.265625,14.763671875C9.24755859375,14.7314453125,9.23828125,14.6953125,9.23779296875,14.658203125L9.23779296875,9.349609375C9.23876953125,9.3125,9.24853515625,9.2763671875,9.26708984375,9.244140625C9.28564453125,9.2119140625,9.31201171875,9.1845703125,9.34375,9.1650390625C9.37548828125,9.146484375,9.41162109375,9.1357421875,9.44873046875,9.1337890625C9.48583984375,9.1318359375,9.52294921875,9.1396484375,9.55615234375,9.15625L15.01416015625,11.8916015625C15.05029296875,11.91015625,15.0810546875,11.9375,15.10205078125,11.97265625C15.123046875,12.0068359375,15.13427734375,12.046875,15.1337890625,12.087890625C15.1328125,12.1279296875,15.12109375,12.16796875,15.09912109375,12.2021484375C15.0771484375,12.236328125,15.0458984375,12.263671875,15.0087890625,12.2802734375L15.0087890625,12.279296875Z" fill-rule="nonzero" style="fill: rgb(15, 23, 42); fill-opacity: 1;"/></g></g></g></g></g></g></g></g></svg>